# xmcd
#
# Track frame offsets:
#	150
#	32485
#	53545
#	76972
#	107350
#	130445
#	153125
#	182207
#	206257
#	229965
#	257745
#	281175
#	305505
#	327202
#
# Disc length: 4698 seconds
#
# Revision: 0
# Processed by: cddbd v1.4b42PL1 Copyright (c) Steve Scherf et al.
# Submitted via: EZCDDA 4.3.3.2
#
DISCID=b612580e
DTITLE=Maze feat. Frankie Beverly - Greatest Slow Jams
DYEAR=1900
DGENRE=
TTITLE0=Happy Feelin's
TTITLE1=I Wish You Well
TTITLE2=Lovely Inspiration
TTITLE3=Happiness
TTITLE4=Family
TTITLE5=Reason
TTITLE6=We Are One
TTITLE7=I Wanna Thank You
TTITLE8=Never Let You Down
TTITLE9=I Love You Too Much
TTITLE10=Your Own Kind Of Way
TTITLE11=Reachin' Down Inside
TTITLE12=A Place In My Heart
TTITLE13=When You Love Someone
EXTD=
EXTT0=
EXTT1=
EXTT2=
EXTT3=
EXTT4=
EXTT5=
EXTT6=
EXTT7=
EXTT8=
EXTT9=
EXTT10=
EXTT11=
EXTT12=
EXTT13=
PLAYORDER=
